<svg xmlns="http://www.w3.org/2000/svg" width="16" height="15" fill="none"><g fill="#2D3748" clip-path="url(#a)"><path d="M13.04 6.563H8.937A1.406 1.406 0 0 1 7.53 5.156V1.055a.117.117 0 0 0-.117-.117H4.72a1.875 1.875 0 0 0-1.875 1.875v9.375a1.875 1.875 0 0 0 1.875 1.875h6.562a1.875 1.875 0 0 0 1.875-1.875V6.68a.117.117 0 0 0-.117-.117Zm-2.696 4.687H5.656a.469.469 0 1 1 0-.937h4.688a.469.469 0 0 1 0 .937Zm0-2.344H5.656a.469.469 0 1 1 0-.937h4.688a.469.469 0 0 1 0 .937Z"/><path d="M12.782 5.526 8.569 1.313a.059.059 0 0 0-.1.041v3.803a.469.469 0 0 0 .469.469h3.803a.059.059 0 0 0 .057-.07.059.059 0 0 0-.016-.03Z"/></g><defs><clipPath id="a"><path fill="#fff" d="M.5 0h15v15H.5z"/></clipPath></defs></svg>