<svg xmlns="http://www.w3.org/2000/svg" width="12" height="12" fill="none"><path fill="#fff" d="M6 4.125a1.875 1.875 0 1 0 0 3.75 1.875 1.875 0 0 0 0-3.75ZM10.048 6c0 .175-.014.35-.038.524l1.14.893a.272.272 0 0 1 .063.347l-1.08 1.863a.273.273 0 0 1-.331.116l-1.342-.54c-.28.216-.585.395-.91.532l-.2 1.425a.28.28 0 0 1-.27.23H4.92a.28.28 0 0 1-.27-.223l-.2-1.424a3.968 3.968 0 0 1-.91-.532l-1.342.54a.273.273 0 0 1-.33-.116L.787 7.77a.272.272 0 0 1 .061-.346L1.99 6.53a4.09 4.09 0 0 1-.038-.53c0-.176.014-.351.038-.524L.85 4.583a.272.272 0 0 1-.062-.346l1.08-1.864a.273.273 0 0 1 .33-.116l1.342.54c.28-.216.585-.394.91-.532l.2-1.424A.28.28 0 0 1 4.92.61h2.16a.281.281 0 0 1 .27.223l.2 1.424c.326.136.632.315.911.532l1.34-.539a.273.273 0 0 1 .332.115l1.08 1.864a.272.272 0 0 1-.062.347l-1.141.893c.024.176.037.353.038.531Z"/></svg>