<svg xmlns="http://www.w3.org/2000/svg" width="12" height="13" fill="none"><path fill="#fff" d="M7.796 2.013A2.412 2.412 0 0 0 6 1.25c-.707 0-1.346.27-1.8.759-.459.495-.682 1.167-.63 1.893C3.674 5.335 4.764 6.5 6 6.5c1.236 0 2.324-1.165 2.43-2.597.053-.72-.172-1.391-.634-1.89ZM10.125 11.75h-8.25a.725.725 0 0 1-.567-.261.828.828 0 0 1-.169-.683c.198-1.097.816-2.019 1.786-2.666.862-.574 1.954-.89 3.075-.89 1.12 0 2.213.316 3.075.89.97.647 1.588 1.569 1.785 2.666a.828.828 0 0 1-.168.682.725.725 0 0 1-.567.261Z"/></svg>