<svg xmlns="http://www.w3.org/2000/svg" width="25" height="9" fill="none"><path fill="#3182CE" fill-rule="evenodd" d="M12.67 2.963c-.013 1.188.983 1.85 1.733 2.244.771.404 1.03.663 1.027 1.024-.005.554-.615.798-1.185.807-.994.017-1.573-.29-2.033-.52l-.358 1.805c.461.23 1.316.43 2.201.438 2.08 0 3.44-1.106 3.447-2.82.008-2.175-2.793-2.295-2.774-3.268.006-.294.268-.609.84-.689.283-.04 1.065-.071 1.952.369l.348-1.748A4.972 4.972 0 0 0 16.015.24c-1.957 0-3.333 1.12-3.344 2.724ZM21.212.39c-.38 0-.7.238-.842.604L17.4 8.632h2.078l.413-1.23h2.539l.24 1.23h1.83L22.903.39h-1.69Zm.291 2.226.6 3.096h-1.643l1.043-3.096ZM10.152.39 8.514 8.632h1.98L12.13.39h-1.98Zm-2.929 0L5.163 6l-.834-4.77C4.23.697 3.845.39 3.416.39H.047L0 .629c.692.162 1.477.422 1.953.701.292.17.375.32.47.725l1.58 6.577h2.091L9.302.39H7.223Z" clip-rule="evenodd"/></svg>